<svg width="100" height="31" viewBox="0 0 100 31" fill="none" xmlns="http://www.w3.org/2000/svg">
<path d="M10.7784 7.33517L14.9701 3.14355L16.1677 4.34116L11.976 8.53278L10.7784 7.33517ZM9.05688 11.6765C8.23353 11.6765 7.55988 11.0028 7.55988 10.1795C7.55988 9.35613 8.23353 8.68248 9.05688 8.68248C9.88024 8.68248 10.5539 9.35613 10.5539 10.1795C10.5539 11.0028 9.88024 11.6765 9.05688 11.6765ZM16.2425 16.0178L15.0449 17.2154L10.8533 13.0238L12.0509 11.8262L16.2425 16.0178Z" fill="#222222"/>
<path d="M93.3383 21.7814C92.9641 22.6796 92.3653 23.3533 91.6916 23.8772C90.9431 24.4012 90.1946 24.6257 89.2964 24.6257C88.0988 24.6257 86.976 24.1766 85.9281 23.2784L87.2006 20.9581C87.7994 21.482 88.3982 21.7814 89.0719 21.7814C89.6707 21.7814 90.1946 21.5569 90.6437 21.1078C91.018 20.6587 91.2425 20.1347 91.2425 19.6108C91.2425 19.3862 89.4461 14.7455 85.7784 5.76347H88.8473L92.8892 15.7186L96.9311 5.76347H100L93.3383 21.7814ZM82.9341 2.54491C82.3353 2.54491 81.8862 2.76946 81.512 3.14371C81.1377 3.51796 80.988 4.04192 80.988 4.64072V5.76347H84.506V8.00898H80.988V19.2365H78.1437V8.00898H76.4222V5.76347H78.1437V4.71557C78.1437 3.29341 78.5928 2.17066 79.4162 1.3473C80.2395 0.523952 81.2874 0.074852 82.485 0.074852C83.6826 0.074852 84.8054 0.523953 85.7784 1.42216L84.5808 3.44312C84.0569 2.84431 83.5329 2.54491 82.9341 2.54491ZM72.006 3.59281C71.482 3.59281 71.1078 3.44312 70.7335 3.06886C70.3593 2.69461 70.2096 2.32036 70.2096 1.79641C70.2096 1.27246 70.3593 0.898204 70.7335 0.523953C71.1078 0.149701 71.482 0 72.006 0C72.5299 0 72.9042 0.149701 73.2784 0.523953C73.6527 0.898204 73.8024 1.27246 73.8024 1.79641C73.8024 2.32036 73.6527 2.69461 73.2784 3.06886C72.979 3.44312 72.5299 3.59281 72.006 3.59281ZM64.6707 19.2365L60.7036 13.3234L58.6826 15.4192V19.2365H55.8383V0.449104H58.6826V11.4521L64.1467 5.76347H67.8144L62.7246 11.0778L68.1886 19.2365H64.6707V19.2365ZM48.9521 16.8413C49.6258 16.8413 50.2994 16.6916 50.8982 16.3174L52.6946 18.1138C51.4222 18.9371 50 19.3862 48.503 19.3862C46.6317 19.3862 44.985 18.7126 43.6377 17.4401C42.2904 16.1677 41.6168 14.521 41.6168 12.4252C41.6168 10.3293 42.2904 8.68264 43.7126 7.41018C45.1347 6.13773 46.8563 5.46407 48.8773 5.46407C50.2246 5.46407 51.497 5.76348 52.5449 6.43713L50.524 8.45808C49.9252 8.23353 49.4012 8.08383 48.8024 8.08383C47.6048 8.08383 46.6317 8.45809 45.7335 9.28144C44.8353 10.0299 44.4611 11.0778 44.4611 12.3503C44.4611 13.6228 44.9102 14.6707 45.7335 15.494C46.6317 16.3922 47.6796 16.8413 48.9521 16.8413ZM32.2605 19.4611C30.2395 19.4611 28.518 18.7874 27.1707 17.4401C25.8234 16.0928 25.1497 14.4461 25.1497 12.5C25.1497 10.5539 25.8234 8.90719 27.1707 7.55988C28.518 6.21258 30.2395 5.53892 32.2605 5.53892C34.2814 5.53892 36.003 6.21258 37.3503 7.55988C38.6976 8.90719 39.3713 10.5539 39.3713 12.5C39.3713 14.4461 38.6976 16.0928 37.3503 17.4401C36.003 18.7874 34.2814 19.4611 32.2605 19.4611ZM35.3293 9.28144C34.506 8.45809 33.5329 8.08383 32.2605 8.08383C31.0629 8.08383 30.015 8.45809 29.1916 9.28144C28.3683 10.1048 27.994 11.1527 27.994 12.4252C27.994 13.6976 28.3683 14.8204 29.1916 15.5689C30.015 16.3922 30.988 16.7665 32.2605 16.7665C33.4581 16.7665 34.506 16.3922 35.3293 15.5689C36.1527 14.7455 36.527 13.6976 36.527 12.4252C36.527 11.2275 36.1527 10.1048 35.3293 9.28144ZM19.3862 0.449104H22.2305V19.2365H19.3862V0.449104ZM9.13174 16.6168C9.95509 16.6168 10.7784 16.4671 11.5269 16.1677L13.6228 18.2635C12.2754 19.012 10.7784 19.3862 9.20659 19.3862C4.11677 19.3862 0 15.2695 0 10.1796C0 5.08982 4.11677 0.973053 9.20659 0.973053C10.8533 0.973053 12.3503 1.42216 13.6228 2.09581L11.6018 4.11677C10.8533 3.81737 10.0299 3.66767 9.20659 3.66767C5.61377 3.66767 2.76946 6.58683 2.76946 10.1048C2.69461 13.6976 5.53892 16.6168 9.13174 16.6168ZM73.4281 19.2365H70.5838V5.76347H73.4281V19.2365Z" fill="#03A9F4"/>
<path d="M29.8979 26.9402C29.3753 26.79 28.9945 26.6059 28.7554 26.3879C28.5184 26.1679 28.3999 25.8971 28.3999 25.5754C28.3999 25.2115 28.5448 24.9111 28.8347 24.6741C29.1267 24.435 29.5055 24.3154 29.9709 24.3154C30.2883 24.3154 30.5708 24.3768 30.8184 24.4995C31.068 24.6222 31.2606 24.7915 31.396 25.0073C31.5335 25.2231 31.6023 25.4591 31.6023 25.7151H30.9897C30.9897 25.4358 30.9009 25.2168 30.7231 25.0581C30.5454 24.8973 30.2947 24.8169 29.9709 24.8169C29.6705 24.8169 29.4356 24.8835 29.2664 25.0168C29.0992 25.148 29.0156 25.3311 29.0156 25.5659C29.0156 25.7542 29.095 25.914 29.2537 26.0452C29.4145 26.1742 29.6864 26.2927 30.0693 26.4006C30.4544 26.5085 30.7549 26.6281 30.9707 26.7593C31.1886 26.8883 31.3494 27.0396 31.4531 27.2131C31.5589 27.3866 31.6118 27.5908 31.6118 27.8257C31.6118 28.2002 31.4658 28.5007 31.1738 28.7271C30.8818 28.9513 30.4915 29.0635 30.0027 29.0635C29.6853 29.0635 29.3891 29.0032 29.114 28.8826C28.8389 28.7598 28.6263 28.5927 28.4761 28.3811C28.328 28.1695 28.2539 27.9294 28.2539 27.6606H28.8665C28.8665 27.9399 28.9691 28.1611 29.1743 28.324C29.3817 28.4848 29.6578 28.5652 30.0027 28.5652C30.3243 28.5652 30.5708 28.4996 30.7422 28.3684C30.9136 28.2372 30.9993 28.0584 30.9993 27.832C30.9993 27.6056 30.9199 27.4311 30.7612 27.3083C30.6025 27.1835 30.3148 27.0608 29.8979 26.9402ZM35.2028 26.864H33.2001V28.5017H35.5265V29H32.5908V24.3789H35.4948V24.8804H33.2001V26.3657H35.2028V26.864ZM37.0926 28.5017H39.2826V29H36.4801V24.3789H37.0926V28.5017ZM42.7212 26.9592H40.782V29H40.1726V24.3789H43.0354V24.8804H40.782V26.4609H42.7212V26.9592ZM49.3192 29H48.7067V26.864H46.3771V29H45.7677V24.3789H46.3771V26.3657H48.7067V24.3789H49.3192V29ZM54.1512 26.8386C54.1512 27.2914 54.075 27.6871 53.9227 28.0256C53.7703 28.3621 53.5545 28.6191 53.2752 28.7969C52.9959 28.9746 52.6701 29.0635 52.2977 29.0635C51.9338 29.0635 51.6111 28.9746 51.3297 28.7969C51.0483 28.617 50.8293 28.3621 50.6727 28.032C50.5182 27.6998 50.4389 27.3158 50.4346 26.8799V26.5466C50.4346 26.1023 50.5119 25.7098 50.6663 25.3691C50.8208 25.0285 51.0387 24.7682 51.3201 24.5884C51.6037 24.4064 51.9274 24.3154 52.2913 24.3154C52.6616 24.3154 52.9875 24.4054 53.2689 24.5852C53.5524 24.7629 53.7703 25.0221 53.9227 25.3628C54.075 25.7013 54.1512 26.0959 54.1512 26.5466V26.8386ZM53.545 26.5403C53.545 25.9923 53.435 25.5723 53.2149 25.2803C52.9949 24.9862 52.687 24.8391 52.2913 24.8391C51.9062 24.8391 51.6026 24.9862 51.3804 25.2803C51.1604 25.5723 51.0472 25.9785 51.0408 26.499V26.8386C51.0408 27.3697 51.1519 27.7876 51.3741 28.0923C51.5984 28.3949 51.9062 28.5461 52.2977 28.5461C52.6912 28.5461 52.9959 28.4033 53.2117 28.1177C53.4276 27.8299 53.5387 27.4184 53.545 26.8831V26.5403ZM56.6218 26.9402C56.0992 26.79 55.7184 26.6059 55.4793 26.3879C55.2423 26.1679 55.1238 25.8971 55.1238 25.5754C55.1238 25.2115 55.2687 24.9111 55.5586 24.6741C55.8506 24.435 56.2293 24.3154 56.6948 24.3154C57.0122 24.3154 57.2947 24.3768 57.5422 24.4995C57.7919 24.6222 57.9845 24.7915 58.1199 25.0073C58.2574 25.2231 58.3262 25.4591 58.3262 25.7151H57.7136C57.7136 25.4358 57.6248 25.2168 57.447 25.0581C57.2693 24.8973 57.0186 24.8169 56.6948 24.8169C56.3944 24.8169 56.1595 24.8835 55.9902 25.0168C55.8231 25.148 55.7395 25.3311 55.7395 25.5659C55.7395 25.7542 55.8189 25.914 55.9775 26.0452C56.1384 26.1742 56.4102 26.2927 56.7932 26.4006C57.1783 26.5085 57.4788 26.6281 57.6946 26.7593C57.9125 26.8883 58.0733 27.0396 58.177 27.2131C58.2828 27.3866 58.3357 27.5908 58.3357 27.8257C58.3357 28.2002 58.1897 28.5007 57.8977 28.7271C57.6057 28.9513 57.2153 29.0635 56.7266 29.0635C56.4092 29.0635 56.113 29.0032 55.8379 28.8826C55.5628 28.7598 55.3502 28.5927 55.2 28.3811C55.0518 28.1695 54.9778 27.9294 54.9778 27.6606H55.5903C55.5903 27.9399 55.693 28.1611 55.8982 28.324C56.1056 28.4848 56.3817 28.5652 56.7266 28.5652C57.0482 28.5652 57.2947 28.4996 57.4661 28.3684C57.6375 28.2372 57.7232 28.0584 57.7232 27.832C57.7232 27.6056 57.6438 27.4311 57.4851 27.3083C57.3264 27.1835 57.0387 27.0608 56.6218 26.9402ZM62.5075 24.8804H61.0222V29H60.416V24.8804H58.9338V24.3789H62.5075V24.8804ZM66.0001 26.864H63.9974V28.5017H66.3238V29H63.3881V24.3789H66.2921V24.8804H63.9974V26.3657H66.0001V26.864ZM67.2774 29V24.3789H68.5818C68.9839 24.3789 69.3393 24.4678 69.6482 24.6455C69.9572 24.8232 70.1952 25.0761 70.3624 25.4041C70.5316 25.732 70.6173 26.1086 70.6194 26.5339V26.8291C70.6194 27.265 70.5348 27.6469 70.3655 27.9749C70.1984 28.3028 69.9582 28.5546 69.6451 28.7302C69.334 28.9058 68.9712 28.9958 68.5564 29H67.2774ZM67.8868 24.8804V28.5017H68.5279C68.9976 28.5017 69.3626 28.3557 69.6229 28.0637C69.8852 27.7717 70.0164 27.356 70.0164 26.8164V26.5466C70.0164 26.0219 69.8926 25.6146 69.6451 25.3247C69.3996 25.0327 69.0505 24.8846 68.5977 24.8804H67.8868Z" fill="black"/>
</svg>
