<svg width="98" height="25" viewBox="0 0 98 25" fill="none" xmlns="http://www.w3.org/2000/svg">
<path d="M10.5629 7.18859L14.6707 3.08081L15.8443 4.25446L11.7365 8.36225L10.5629 7.18859ZM8.87576 11.4431C8.06887 11.4431 7.40869 10.7829 7.40869 9.97602C7.40869 9.16914 8.06887 8.50896 8.87576 8.50896C9.68264 8.50896 10.3428 9.16914 10.3428 9.97602C10.3428 10.7829 9.68264 11.4431 8.87576 11.4431ZM15.9177 15.6976L14.744 16.8712L10.6362 12.7634L11.8099 11.5898L15.9177 15.6976Z" fill="white"/>
<path d="M91.4716 21.3458C91.1048 22.2261 90.518 22.8862 89.8578 23.3997C89.1243 23.9132 88.3907 24.1332 87.5105 24.1332C86.3368 24.1332 85.2365 23.6931 84.2096 22.8129L85.4566 20.5389C86.0434 21.0524 86.6302 21.3458 87.2904 21.3458C87.8773 21.3458 88.3907 21.1257 88.8308 20.6856C89.1976 20.2455 89.4177 19.732 89.4177 19.2186C89.4177 18.9985 87.6572 14.4506 84.0629 5.6482H87.0704L91.0314 15.4042L94.9925 5.6482H98L91.4716 21.3458ZM81.2755 2.49401C80.6886 2.49401 80.2485 2.71407 79.8817 3.08084C79.515 3.44761 79.3683 3.96108 79.3683 4.5479V5.6482H82.8159V7.8488H79.3683V18.8518H76.5808V7.8488H74.8937V5.6482H76.5808V4.62126C76.5808 3.22754 77.021 2.12724 77.8278 1.32036C78.6347 0.513472 79.6617 0.073355 80.8353 0.073355C82.009 0.073355 83.1093 0.513474 84.0629 1.39371L82.8892 3.37425C82.3758 2.78743 81.8623 2.49401 81.2755 2.49401ZM70.5659 3.52096C70.0524 3.52096 69.6856 3.37425 69.3189 3.00749C68.9521 2.64072 68.8054 2.27395 68.8054 1.76048C68.8054 1.24701 68.9521 0.88024 69.3189 0.513474C69.6856 0.146707 70.0524 0 70.5659 0C71.0793 0 71.4461 0.146707 71.8129 0.513474C72.1796 0.88024 72.3263 1.24701 72.3263 1.76048C72.3263 2.27395 72.1796 2.64072 71.8129 3.00749C71.5195 3.37425 71.0793 3.52096 70.5659 3.52096ZM63.3773 18.8518L59.4895 13.0569L57.509 15.1108V18.8518H54.7216V0.440121H57.509V11.2231L62.8638 5.6482H66.4581L61.4701 10.8563L66.8249 18.8518H63.3773ZM47.9731 16.5045C48.6332 16.5045 49.2934 16.3578 49.8802 15.991L51.6407 17.7515C50.3937 18.5584 49 18.9985 47.5329 18.9985C45.6991 18.9985 44.0853 18.3383 42.765 17.0913C41.4446 15.8443 40.7844 14.2305 40.7844 12.1766C40.7844 10.1228 41.4446 8.50898 42.8383 7.26198C44.232 6.01497 45.9192 5.35479 47.8997 5.35479C49.2201 5.35479 50.4671 5.64821 51.494 6.30839L49.5135 8.28892C48.9266 8.06886 48.4132 7.92216 47.8264 7.92216C46.6527 7.92216 45.6991 8.28892 44.8189 9.09581C43.9386 9.82934 43.5719 10.8563 43.5719 12.1033C43.5719 13.3503 44.012 14.3772 44.8189 15.1841C45.6991 16.0644 46.7261 16.5045 47.9731 16.5045ZM31.6153 19.0719C29.6347 19.0719 27.9476 18.4117 26.6272 17.0913C25.3069 15.771 24.6467 14.1572 24.6467 12.25C24.6467 10.3428 25.3069 8.72904 26.6272 7.40868C27.9476 6.08833 29.6347 5.42814 31.6153 5.42814C33.5958 5.42814 35.2829 6.08833 36.6033 7.40868C37.9237 8.72904 38.5838 10.3428 38.5838 12.25C38.5838 14.1572 37.9237 15.771 36.6033 17.0913C35.2829 18.4117 33.5958 19.0719 31.6153 19.0719ZM34.6228 9.09581C33.8159 8.28892 32.8623 7.92216 31.6153 7.92216C30.4416 7.92216 29.4147 8.28892 28.6078 9.09581C27.8009 9.9027 27.4341 10.9296 27.4341 12.1766C27.4341 13.4237 27.8009 14.524 28.6078 15.2575C29.4147 16.0644 30.3683 16.4311 31.6153 16.4311C32.7889 16.4311 33.8159 16.0644 34.6228 15.2575C35.4296 14.4506 35.7964 13.4237 35.7964 12.1766C35.7964 11.003 35.4296 9.9027 34.6228 9.09581ZM18.9985 0.440121H21.7859V18.8518H18.9985V0.440121ZM8.9491 16.2844C9.75599 16.2844 10.5629 16.1377 11.2964 15.8443L13.3503 17.8982C12.0299 18.6317 10.5629 18.9985 9.02246 18.9985C4.03443 18.9985 0 14.9641 0 9.97605C0 4.98803 4.03443 0.953592 9.02246 0.953592C10.6362 0.953592 12.1033 1.39371 13.3503 2.05389L11.3698 4.03443C10.6362 3.74102 9.82934 3.59431 9.02246 3.59431C5.5015 3.59431 2.71407 6.45509 2.71407 9.90269C2.64072 13.4237 5.42814 16.2844 8.9491 16.2844ZM71.9596 18.8518H69.1722V5.6482H71.9596V18.8518Z" fill="#03A9F4"/>
</svg>
