<svg width="192" height="69" xmlns="http://www.w3.org/2000/svg" xmlns:xlink="http://www.w3.org/1999/xlink"><use xlink:href="#path0_stroke" transform="translate(15 29.8)" fill="#526772"/><use xlink:href="#path1_stroke" transform="translate(11 25.8)" fill="#526772"/><use xlink:href="#path2_stroke" transform="translate(1 25.8)" fill="#526772"/><use xlink:href="#path3_stroke" transform="translate(38 7.8)" fill="#526772"/><use xlink:href="#path4_stroke" transform="translate(46 7.8)" fill="#526772"/><use xlink:href="#path4_stroke" transform="translate(87 54.8)" fill="#526772"/><use xlink:href="#path3_stroke" transform="translate(78 54.8)" fill="#526772"/><use xlink:href="#path4_stroke" transform="translate(87 59.8)" fill="#526772"/><use xlink:href="#path5_stroke" transform="translate(39 46.8)" fill="#526772"/><use xlink:href="#path6_fill" transform="translate(26.8 15)" fill="#FFF"/><use xlink:href="#path7_fill" transform="translate(25.8 14)" fill="#526772"/><use xlink:href="#path8_fill" transform="translate(35.5 21.2)" fill="#18AAF0"/><use xlink:href="#path9_fill" transform="translate(66.1 22.1)" fill="#CEE8F8"/><use xlink:href="#path10_fill" transform="translate(83.1 28.3)" fill="#18AAF0"/><use xlink:href="#path11_fill" transform="translate(53.1 1)" fill="#FFF"/><use xlink:href="#path12_fill" transform="translate(52.1)" fill="#526772"/><use xlink:href="#path13_fill" transform="translate(61.8 5.8)" fill="#ABBFC9"/><use xlink:href="#path14_fill" transform="translate(92.4 7.6)" fill="#ABBFC9"/><use xlink:href="#path15_fill" transform="translate(109.4 13.7)" fill="#ABBFC9"/><use xlink:href="#path16_fill" transform="translate(93.7 44.2)" fill="#FFF"/><use xlink:href="#path17_fill" transform="translate(92.7 43.2)" fill="#526772"/><g transform="translate(-4204 -2467)"><use xlink:href="#path18_fill" transform="translate(4306.4 2517.3)" fill="#EDAA3E"/></g><g><use xlink:href="#path19_fill" transform="translate(133 51.3)" fill="#EDAA3E"/></g><g><use xlink:href="#path20_fill" transform="translate(150 57.4)" fill="#EDAA3E"/></g><defs><path id="path0_stroke" d="M0-1a1 1 0 1 0 0 2v-2zm12 2a1 1 0 1 0 0-2v2zM0 1h12v-2H0v2z"/><path id="path1_stroke" d="M0-1a1 1 0 1 0 0 2v-2zm16 2a1 1 0 1 0 0-2v2zM0 1h16v-2H0v2z"/><path id="path2_stroke" d="M0-1a1 1 0 1 0 0 2v-2zm5 2a1 1 0 0 0 0-2v2zM0 1h5v-2H0v2z"/><path id="path3_stroke" d="M0-1a1 1 0 1 0 0 2v-2zm4 2a1 1 0 0 0 0-2v2zM0 1h4v-2H0v2z"/><path id="path4_stroke" d="M0-1a1 1 0 1 0 0 2v-2zm6 2a1 1 0 0 0 0-2v2zM0 1h6v-2H0v2z"/><path id="path5_stroke" d="M0-1a1 1 0 1 0 0 2v-2zm18 2a1 1 0 1 0 0-2v2zM0 1h18v-2H0v2z"/><path id="path6_fill" d="M1.8 23.3c-1 0-1.8-.8-1.8-1.8V1.8C0 .8.8 0 1.8 0h93.5c1 0 1.8.8 1.8 1.8v19.7c0 1-.8 1.8-1.8 1.8H1.8z"/><path id="path7_fill" d="M96.3 2c.4 0 .8.4.8.8v19.7c0 .4-.4.8-.8.8H2.8c-.4 0-.8-.4-.8-.8V2.8c0-.4.4-.8.8-.8h93.5zm0-2H2.8C1.3 0 0 1.3 0 2.8v19.7c0 1.5 1.3 2.8 2.8 2.8h93.5c1.5 0 2.8-1.3 2.8-2.8V2.8c0-1.5-1.2-2.8-2.8-2.8z"/><path id="path8_fill" d="M0 0l5.4 5.4L0 10.8V0z"/><path id="path9_fill" d="M50.8 0H0v3.1h50.8V0z"/><path id="path10_fill" d="M29.8 0H0v3.1h29.8V0z"/><path id="path11_fill" d="M1.8 23.2c-1 0-1.8-.8-1.8-1.8V1.8C0 .8.8 0 1.8 0h93.5c1 0 1.8.8 1.8 1.8v19.7c0 1-.8 1.8-1.8 1.8H1.8v-.1z"/><path id="path12_fill" d="M96.3 2c.4 0 .8.4.8.8v19.7c0 .4-.4.8-.8.8H2.8c-.4 0-.8-.4-.8-.8V2.8c0-.4.4-.8.8-.8h93.5zm0-2H2.8C1.3 0 0 1.3 0 2.8v19.7c0 1.5 1.3 2.8 2.8 2.8h93.5c1.5 0 2.8-1.3 2.8-2.8V2.8c0-1.6-1.2-2.8-2.8-2.8z"/><path id="path13_fill" d="M0 0l5.4 5.4L0 10.8V0z"/><path id="path14_fill" d="M50.8 0H0v3.1h50.8V0z"/><path id="path15_fill" d="M29.8 0H0v3.1h29.8V0z"/><path id="path16_fill" d="M1.8 23.2c-1 0-1.8-.8-1.8-1.8V1.8C0 .8.8 0 1.8 0h93.5c1 0 1.8.8 1.8 1.8v19.7c0 1-.8 1.8-1.8 1.8H1.8v-.1z"/><path id="path17_fill" d="M96.4 2c.4 0 .8.4.8.8v19.7c0 .4-.4.8-.8.8H2.8c-.4 0-.8-.4-.8-.8V2.8c0-.4.4-.8.8-.8h93.6zm0-2H2.8C1.3 0 0 1.3 0 2.8v19.7c0 1.5 1.3 2.8 2.8 2.8h93.5c1.5 0 2.8-1.3 2.8-2.8V2.8c0-1.6-1.2-2.8-2.7-2.8z"/><path id="path18_fill" d="M0 0l5.4 5.5L0 10.9V0z"/><path id="path19_fill" d="M50.8 0H0v3.1h50.8V0z"/><path id="path20_fill" d="M29.8 0H0v3.1h29.8V0z"/></defs></svg>