<svg width="100" height="25" viewBox="0 0 100 25" fill="none" xmlns="http://www.w3.org/2000/svg">
<path fill-rule="evenodd" clip-rule="evenodd" d="M10.8625 7.3356L15.0873 3.10431L16.2967 4.3146L12.0718 8.5459L10.8625 7.3356ZM9.15056 11.6597C8.32377 11.6597 7.65393 10.9862 7.65393 10.1548C7.65393 9.32413 8.32377 8.64983 9.15056 8.64983C9.97736 8.64983 10.6472 9.32413 10.6472 10.1548C10.6472 10.9862 9.97736 11.6597 9.15056 11.6597ZM16.3164 16.0301L15.1071 17.2413L10.8822 13.01L12.0915 11.7988L16.3164 16.0301Z" fill="#222222"/>
<path fill-rule="evenodd" clip-rule="evenodd" d="M93.4663 21.7844C93.0777 22.6631 92.5211 23.3572 91.7955 23.864C91.0691 24.3716 90.2672 24.625 89.3898 24.625C88.1573 24.625 87.0432 24.1766 86.0474 23.2807L87.3382 20.9727C87.9292 21.531 88.5415 21.8101 89.1745 21.8101C89.8075 21.8101 90.3221 21.5817 90.7192 21.1247C91.1154 20.6686 91.3144 20.1695 91.3144 19.6292C91.3144 19.3921 89.4996 14.7683 85.8699 5.75683H88.9086L92.9345 15.6977L96.9613 5.75683H100L93.4663 21.7844ZM83.0181 2.53569C82.4109 2.53569 81.9375 2.72552 81.6004 3.10604C81.2625 3.48657 81.0935 3.99851 81.0935 4.64102V5.75683H84.6391V8.03911H81.0935V19.2487H78.2581V8.03911H76.5616V5.75683H78.2581V4.71662C78.2581 3.29674 78.6835 2.16804 79.5369 1.33141C80.3885 0.493909 81.4186 0.0755917 82.6262 0.0755917C83.8329 0.0755917 84.9342 0.52397 85.9308 1.41988L84.7652 3.423C84.2086 2.83203 83.6262 2.53569 83.0181 2.53569ZM72.1558 3.60081C71.666 3.60081 71.2441 3.42301 70.889 3.06825C70.5348 2.71349 70.3572 2.29088 70.3572 1.8004C70.3572 1.30993 70.5348 0.887318 70.889 0.532563C71.2441 0.176948 71.666 -2.20195e-06 72.1558 -2.20195e-06C72.6446 -2.20195e-06 73.0675 0.176948 73.4217 0.532563C73.7759 0.887318 73.9534 1.30993 73.9534 1.8004C73.9534 2.29088 73.7759 2.71349 73.4217 3.06825C73.0675 3.42301 72.6446 3.60081 72.1558 3.60081ZM64.7969 19.2487L60.7959 13.339L58.7444 15.4185V19.2487H55.9081V0.430342H58.7444V11.4879L64.2146 5.75683H67.8605L62.7454 11.1074L68.2405 19.2487H64.7969ZM49.0613 16.8642C49.7294 16.8642 50.3778 16.6967 51.0065 16.3711L52.817 18.1853C51.546 19.0279 50.1471 19.4514 48.6179 19.4514C46.7439 19.4514 45.1314 18.8132 43.7815 17.5368C42.4306 16.2603 41.7557 14.5905 41.7557 12.5281C41.7557 10.4657 42.4607 8.78728 43.8698 7.49367C45.279 6.20005 46.9977 5.55325 49.0227 5.55325C50.3958 5.55325 51.624 5.87708 52.7107 6.52131L50.684 8.55106C50.1154 8.31313 49.545 8.19115 48.9721 8.19115C47.7902 8.19115 46.7653 8.58456 45.8956 9.37052C45.0259 10.1565 44.592 11.1709 44.592 12.4139C44.592 13.6559 45.0225 14.709 45.8828 15.5714C46.7439 16.433 47.8031 16.8642 49.0613 16.8642ZM32.3865 19.4514C30.3607 19.4514 28.6728 18.7788 27.3219 17.4354C25.9711 16.0911 25.2961 14.447 25.2961 12.5023C25.2961 10.5585 25.9711 8.91355 27.3219 7.57012C28.6728 6.22583 30.3607 5.55325 32.3865 5.55325C34.4123 5.55325 36.1002 6.22583 37.451 7.57012C38.8018 8.91355 39.4768 10.5585 39.4768 12.5023C39.4768 14.447 38.8018 16.0911 37.451 17.4354C36.1002 18.7788 34.4123 19.4514 32.3865 19.4514ZM35.4381 9.31985C34.6361 8.49953 33.6189 8.08979 32.3865 8.08979C31.154 8.08979 30.1368 8.49953 29.3357 9.31985C28.533 10.1402 28.1324 11.201 28.1324 12.5023C28.1324 13.8045 28.533 14.8654 29.3357 15.6848C30.1368 16.5051 31.154 16.9149 32.3865 16.9149C33.6189 16.9149 34.6361 16.5051 35.4381 15.6848C36.2391 14.8654 36.6405 13.8045 36.6405 12.5023C36.6405 11.201 36.2391 10.1402 35.4381 9.31985ZM19.5094 0.430342H22.3457V19.2487H19.5094V0.430342ZM9.19422 16.6598C10.0459 16.6598 10.8572 16.4897 11.6008 16.1873L13.6644 18.2549C12.341 18.9944 10.8178 19.4196 9.19422 19.4196C4.11681 19.4196 -1.72748e-06 15.2966 -1.72748e-06 10.2115C-1.72748e-06 5.12548 4.11681 1.00242 9.19422 1.00242C10.8015 1.00242 12.311 1.4173 13.6249 2.14313L11.5957 4.17632C10.853 3.87568 10.0442 3.7056 9.19422 3.7056C5.63832 3.7056 2.7557 6.60549 2.7557 10.1831C2.7557 13.7599 5.63832 16.6598 9.19422 16.6598ZM73.5486 19.2487H70.7123V5.75683H73.5486V19.2487Z" fill="#03A9F4"/>
</svg>
