<svg width="1178" height="300" viewBox="0 0 1178 300" fill="none" xmlns="http://www.w3.org/2000/svg">
<path d="M235 0H65C29.1015 0 0 29.1015 0 65V235C0 270.898 29.1015 300 65 300H235C270.898 300 300 270.898 300 235V65C300 29.1015 270.898 0 235 0Z" fill="#03A9F4"/>
<path d="M192.728 85.4439C197.963 80.1996 196.836 71.3865 189.922 68.7326C180.275 65.0292 169.8 63 158.852 63C110.885 63 72 101.951 72 150C72 198.049 110.885 237 158.852 237C169.732 237 180.145 234.996 189.744 231.336C196.676 228.692 197.814 219.863 192.569 214.609C189.17 211.204 184.027 210.41 179.466 211.928C173.002 214.081 166.088 215.247 158.902 215.247C122.927 215.247 93.7631 186.033 93.7631 149.997C93.7631 113.96 122.927 84.7466 158.902 84.7466C166.14 84.7466 173.102 85.9291 179.606 88.1117C184.17 89.6432 189.324 88.8535 192.728 85.4439Z" fill="white"/>
<path d="M172 151C172 157.075 167.075 162 161 162C154.925 162 150 157.075 150 151C150 144.925 154.925 140 161 140C167.075 140 172 144.925 172 151Z" fill="white"/>
<path d="M177.955 133.728C174.015 129.812 174.015 123.464 177.955 119.549L210.775 86.9366C214.716 83.0211 221.104 83.0211 225.045 86.9366C228.985 90.8521 228.985 97.2003 225.045 101.116L192.225 133.728C188.284 137.643 181.896 137.643 177.955 133.728Z" fill="white"/>
<path d="M177.955 166.272C174.015 170.188 174.015 176.536 177.955 180.451L210.775 213.063C214.716 216.979 221.104 216.979 225.045 213.063C228.985 209.148 228.985 202.8 225.045 198.884L192.225 166.272C188.284 162.357 181.896 162.357 177.955 166.272Z" fill="white"/>
<path d="M355 152.73C355 119.943 381.097 94.0698 413.217 94.0698C435.076 94.0698 453.813 106.114 463.627 124.627L443.776 135.556C437.753 124.181 426.377 117.043 412.994 117.043C393.811 117.043 379.09 132.88 379.09 152.507C379.09 172.358 393.811 187.302 412.994 187.302C425.931 187.302 436.638 181.503 443.106 170.797L463.404 181.503C453.59 199.57 434.853 210.499 413.217 210.499C381.097 210.499 355 185.518 355 152.73Z" fill="black"/>
<path d="M484.105 47.0074H510.871V208.045H484.105V47.0074Z" fill="black"/>
<path d="M531.392 152.73C531.392 119.943 557.713 94.0698 589.832 94.0698C622.175 94.0698 648.496 119.943 648.496 152.73C648.496 185.518 622.175 210.276 589.832 210.276C557.713 210.276 531.392 185.518 531.392 152.73ZM555.705 152.507C555.705 172.135 570.65 187.079 589.832 187.079C609.015 187.079 624.183 172.135 624.183 152.507C624.183 133.103 609.015 117.043 589.832 117.043C570.65 117.043 555.705 133.103 555.705 152.507Z" fill="black"/>
<path d="M662.571 152.73C662.571 119.943 688.668 94.0698 720.788 94.0698C742.647 94.0698 761.384 106.114 771.198 124.627L751.346 135.556C745.324 124.181 733.948 117.043 720.565 117.043C701.382 117.043 686.661 132.88 686.661 152.507C686.661 172.358 701.382 187.302 720.565 187.302C733.502 187.302 744.209 181.503 750.677 170.797L770.975 181.503C761.161 199.57 742.424 210.499 720.788 210.499C688.668 210.499 662.571 185.518 662.571 152.73Z" fill="black"/>
<path d="M897.863 95.1125L855.469 140.24L900.526 208.045H869.744L836.956 156.968L815.765 179.05V208.045H788.999V94.0698H815.765V149.608L866.737 95.1125H897.863Z" fill="black"/>
<path d="M932.099 79.1258C922.73 79.1258 915.146 71.3192 915.146 62.1744C915.146 52.8065 922.73 45.223 932.099 45.223C941.467 45.223 949.051 52.8065 949.051 62.1744C949.051 71.3192 941.467 79.1258 932.099 79.1258ZM918.715 208.045V96.5233H945.482V208.045H918.715Z" fill="black"/>
<path d="M1028.14 45C1037.51 45 1043.98 46.5613 1048.66 49.4609V70.4271C1045.32 69.0888 1038.4 67.0814 1033.05 67.0814C1020.78 67.0814 1013.64 72.8806 1013.64 84.2558V97.6385H1049.33V118.159H1014.53V208.045H987.768V118.159H967.47V97.6385H987.768V81.5793C987.768 57.9366 1003.38 45 1028.14 45Z" fill="black"/>
<path d="M1130.94 218.529C1120.68 246.409 1108.41 256 1086.77 256C1074.73 256 1066.25 253.324 1059.56 247.078L1066.7 227.45C1071.6 233.473 1077.85 235.034 1085.21 235.034C1093.46 235.034 1099.71 232.134 1104.17 220.09L1108.63 208.938L1096.59 180.834L1062.23 96.5233H1091.9L1115.1 161.875L1121.34 181.726L1128.48 160.314L1150.56 96.5233H1178L1130.94 218.529Z" fill="black"/>
</svg>
